<svg id="JR-1" xmlns="http://www.w3.org/2000/svg" width="120" height="120" viewBox="0 0 120 120">
  <rect id="Rectangle_994" data-name="Rectangle 994" width="118.857" height="118.857" rx="59.428" transform="translate(0 0)" fill="#ffe419"/>
  <path id="Subtraction_4" data-name="Subtraction 4" d="M60,120h-.008a59.712,59.712,0,0,1-33.539-10.246,60.174,60.174,0,0,1-21.738-26.4,59.922,59.922,0,0,1,5.532-56.9,60.175,60.175,0,0,1,26.4-21.738A59.624,59.624,0,0,1,60,0Z" transform="translate(120 120) rotate(180)" fill="#f7cd0f"/>
  <g id="XMLID_20_" transform="translate(25.344 20.176)">
    <g id="XMLID_41_" transform="translate(0 49.373)">
      <path id="XMLID_18_" d="M216.9,310.45h-4.18a6.426,6.426,0,0,1-6.424-6.424v-9.3a6.426,6.426,0,0,1,6.424-6.424h4.18a6.426,6.426,0,0,1,6.424,6.424v9.3A6.426,6.426,0,0,1,216.9,310.45Z" transform="translate(-179.713 -288.3)" fill="#f5c29f"/>
      <path id="XMLID_17_" d="M94.714,379.3v.154a6.426,6.426,0,0,1-6.424,6.424H84.11a6.426,6.426,0,0,1-6.424-6.424V379.3c-13.379,2.9-23.794,11.8-26.587,22.664-.034.154,11.485,12.763,35,12.167s35.222-12.013,35.171-12.167C118.491,391.086,108.076,382.178,94.714,379.3Z" transform="translate(-51.1 -363.711)" fill="#4360fd"/>
      <path id="XMLID_16_" d="M310.9,407.947c2.6,0,5.156.017,7.555.017l3.769-17.953a39.983,39.983,0,0,0-7.709-3.512Z" transform="translate(-266.395 -369.678)" fill="#f2f2f2"/>
      <path id="XMLID_15_" d="M138.769,407.965c2.4,0,4.934-.017,7.555-.017L142.709,386.5A40.461,40.461,0,0,0,135,390.012Z" transform="translate(-120.627 -369.678)" fill="#f2f2f2"/>
    </g>
    <g id="XMLID_21_" transform="translate(6.663 0)">
      <ellipse id="XMLID_14_" cx="21.088" cy="24.599" rx="21.088" ry="24.599" transform="translate(7.453 12.868)" fill="#ffd2b1"/>
      <g id="XMLID_29_" transform="translate(14.579 28.346)">
        <g id="XMLID_35_" transform="translate(17.953)">
          <path id="XMLID_13_" d="M279.9,168.321a5.348,5.348,0,0,1,2.107-1.987,6.116,6.116,0,0,1,2.878-.771,6.481,6.481,0,0,1,1.525.137,5.612,5.612,0,0,1,1.4.565,4.662,4.662,0,0,1,1.182.891,3.1,3.1,0,0,1,.48.565c.137.206.274.394.394.617-.5-.1-.908-.291-1.336-.394a11.623,11.623,0,0,0-1.233-.291c-.394-.1-.805-.12-1.182-.188-.394,0-.788-.051-1.182-.017a14.706,14.706,0,0,0-2.4.274C281.682,167.858,280.842,168.081,279.9,168.321Z" transform="translate(-279.9 -165.555)" fill="#333"/>
          <g id="XMLID_36_" transform="translate(2.45 4.051)">
            <circle id="XMLID_12_" cx="2.535" cy="2.535" r="2.535" fill="#333"/>
            <circle id="XMLID_11_" cx="0.634" cy="0.634" r="0.634" transform="translate(2.313 0.051)" fill="#f2f2f2"/>
          </g>
        </g>
        <g id="XMLID_30_">
          <path id="XMLID_10_" d="M175.1,168.321a5.348,5.348,0,0,1,2.107-1.987,6.116,6.116,0,0,1,2.878-.771,6.481,6.481,0,0,1,1.525.137,5.61,5.61,0,0,1,1.4.565,4.662,4.662,0,0,1,1.182.891,3.1,3.1,0,0,1,.48.565c.137.206.274.394.394.617-.5-.1-.908-.291-1.336-.394a11.623,11.623,0,0,0-1.233-.291c-.394-.1-.805-.12-1.182-.188-.394,0-.788-.051-1.182-.017a14.707,14.707,0,0,0-2.4.274C176.9,167.858,176.059,168.081,175.1,168.321Z" transform="translate(-175.1 -165.555)" fill="#333"/>
          <g id="XMLID_31_" transform="translate(2.45 4.051)">
            <circle id="XMLID_9_" cx="2.535" cy="2.535" r="2.535" fill="#333"/>
            <circle id="XMLID_8_" cx="0.634" cy="0.634" r="0.634" transform="translate(2.33 0.051)" fill="#f2f2f2"/>
          </g>
        </g>
      </g>
      <path id="XMLID_7_" d="M211.7,284.88a20.237,20.237,0,0,0,3.82,1.233,17.327,17.327,0,0,0,3.854.394,26.994,26.994,0,0,0,1.919-.137c.325-.051.634-.1.959-.137l.959-.206.48-.1c.154-.034.308-.1.48-.137l.959-.274c.651-.188,1.268-.463,1.953-.634a15.181,15.181,0,0,1-1.662,1.268,12.9,12.9,0,0,1-1.884.942c-.326.12-.668.257-.994.36-.343.086-.685.154-1.045.24a7.219,7.219,0,0,1-1.062.154,7.536,7.536,0,0,1-1.062.068,10.827,10.827,0,0,1-4.18-.754A9.037,9.037,0,0,1,211.7,284.88Z" transform="translate(-190.851 -235.579)" fill="#f4a56e"/>
      <path id="XMLID_6_" d="M235.8,253c.685.188,1.285.343,1.867.445a9.891,9.891,0,0,0,1.713.188,7.075,7.075,0,0,0,1.679-.171c.291-.034.582-.137.891-.206s.617-.206.976-.257a3.792,3.792,0,0,1-.617.839,4.4,4.4,0,0,1-.839.651,3.9,3.9,0,0,1-2.107.531,4.42,4.42,0,0,1-2.09-.548A3.591,3.591,0,0,1,235.8,253Z" transform="translate(-210.823 -209.674)" fill="#f4a56e"/>
      <path id="XMLID_5_" d="M92.137,35.014s-5.465-5.208,1.062-9.422c0,0-5.276-6.989,1.251-8.223,0,0-1.165-10.552,9.2-10.552,0,0,5.55-11.34,15.332-4.591,0,0,12.882-6.6,15.058,3.957,0,0,9.319,1.079,6.835,8.223,0,0,9.781.223,4.351,8.531,0,0,4.043,8.24-1.645,10.844,0,0-5.653,1.473-7.52-3.991,0,0-3.546-12.026-11.8-12.779,0,0-4.762,2.193-5.722,2.193a10.078,10.078,0,0,1-6.081-1.251S101.7,18.672,98.39,33.13A4.928,4.928,0,0,0,92.137,35.014Z" transform="translate(-89.995 -0.082)" fill="#3f2820"/>
      <ellipse id="XMLID_4_" cx="4.899" cy="6.784" rx="4.899" ry="6.784" transform="translate(46.864 30.227) rotate(12.263)" fill="#ffd2b1"/>
      <ellipse id="XMLID_3_" cx="4.899" cy="6.784" rx="4.899" ry="6.784" transform="translate(12.996 43.919) rotate(167.737)" fill="#ffd2b1"/>
      <path id="XMLID_2_" d="M349.453,173.6,347.5,185.523l6.1-10.535Z" transform="translate(-303.388 -143.876)" fill="#3f2820"/>
      <path id="XMLID_1_" d="M123.646,173.6l1.936,11.923L119.5,174.988Z" transform="translate(-114.446 -143.876)" fill="#3f2820"/>
    </g>
  </g>
</svg>
