<svg xmlns="http://www.w3.org/2000/svg" width="120" height="120.057" viewBox="0 0 120 120.057">
  <g id="JR-2" transform="translate(-16430 -2227)">
    <g id="Group_4245" data-name="Group 4245">
      <rect id="Rectangle_994" data-name="Rectangle 994" width="118.857" height="118.857" rx="59.428" transform="translate(16430 2227)" fill="#ff5fd4"/>
      <path id="Subtraction_4" data-name="Subtraction 4" d="M60,120h-.008a59.712,59.712,0,0,1-33.539-10.246,60.174,60.174,0,0,1-21.738-26.4,59.922,59.922,0,0,1,5.532-56.9,60.175,60.175,0,0,1,26.4-21.738A59.624,59.624,0,0,1,60,0Z" transform="translate(16550 2347) rotate(180)" fill="#f440c3"/>
      <g id="XMLID_20_" transform="translate(16455.344 2247.176)">
        <g id="XMLID_153_" transform="translate(-38.988 6.984)">
          <path id="XMLID_177_" d="M91.7,194.8c0,3.114.147,10.309.934,13.341.9,3.507,2.507,5,5.031,7.341a2.5,2.5,0,0,1,.869,2.72,10.76,10.76,0,0,0,1.524-4.736,18.241,18.241,0,0,1,2.311,4.752c.377-.934.754-1.852,1.131-2.786,2.36,2.688,5.932,3.933,9.406,4.752,4.457,1.049,9.029-.443,13.6-.492a26.86,26.86,0,0,1,5.506.246,6.8,6.8,0,0,1,4.556,2.835,6.7,6.7,0,0,0-1.1-4.425,13.4,13.4,0,0,1,6.358,8.046c2.081-5.064,3.015-12.521,3.409-17.961.2-2.753.262-5.506.279-8.276,0-1.573.852-6.194-.819-7a4.054,4.054,0,0,0-1.983-.246Q117.2,193.871,91.7,194.8Z" transform="translate(-44.9 -161.306)" fill="#3f2820"/>
          <path id="XMLID_176_" d="M213.9,296.449h-4.261a6.546,6.546,0,0,1-6.539-6.539v-9.472a6.546,6.546,0,0,1,6.539-6.538H213.9a6.546,6.546,0,0,1,6.539,6.538v9.472A6.536,6.536,0,0,1,213.9,296.449Z" transform="translate(-138.045 -229.036)" fill="#edbb98"/>
          <path id="XMLID_174_" d="M269.2,432.3" transform="translate(-193.313 -361.479)" fill="#110102"/>
          <ellipse id="XMLID_173_" cx="4.998" cy="6.899" rx="4.998" ry="6.899" transform="translate(92.477 24.179) rotate(12.263)" fill="#ffd2b1"/>
          <ellipse id="XMLID_172_" cx="4.998" cy="6.899" rx="4.998" ry="6.899" transform="translate(58.01 38.099) rotate(167.737)" fill="#ffd2b1"/>
          <ellipse id="XMLID_171_" cx="21.467" cy="25.04" rx="21.467" ry="25.04" transform="translate(52.371 6.501)" fill="#ffd2b1"/>
          <g id="XMLID_160_" transform="translate(59.352 22.258)">
            <g id="XMLID_166_" transform="translate(18.272)">
              <path id="XMLID_170_" d="M279.8,138.765a5.525,5.525,0,0,1,2.147-2.016,6.421,6.421,0,0,1,2.933-.787,6.269,6.269,0,0,1,1.557.147,5.762,5.762,0,0,1,1.442.574,5.079,5.079,0,0,1,1.213.9,3.158,3.158,0,0,1,.475.574,4.963,4.963,0,0,1,.393.623c-.508-.1-.918-.295-1.36-.393s-.836-.246-1.262-.311c-.41-.1-.819-.115-1.213-.2-.41,0-.8-.066-1.2-.033a13.05,13.05,0,0,0-2.458.295C281.619,138.306,280.75,138.519,279.8,138.765Z" transform="translate(-279.8 -135.955)" fill="#333"/>
              <g id="XMLID_167_" transform="translate(2.474 4.104)">
                <circle id="XMLID_169_" cx="2.589" cy="2.589" r="2.589" fill="#333"/>
                <circle id="XMLID_168_" cx="0.639" cy="0.639" r="0.639" transform="translate(2.376 0.082)" fill="#f2f2f2"/>
              </g>
            </g>
            <g id="XMLID_161_">
              <path id="XMLID_165_" d="M168.3,138.765a5.525,5.525,0,0,1,2.147-2.016,6.421,6.421,0,0,1,2.933-.787,6.269,6.269,0,0,1,1.557.147,5.761,5.761,0,0,1,1.442.574,5.077,5.077,0,0,1,1.213.9,3.157,3.157,0,0,1,.475.574,4.97,4.97,0,0,1,.393.623c-.508-.1-.918-.295-1.36-.393s-.836-.246-1.262-.311c-.41-.1-.819-.115-1.213-.2-.41,0-.8-.066-1.2-.033a13.05,13.05,0,0,0-2.458.295C170.119,138.306,169.267,138.519,168.3,138.765Z" transform="translate(-168.3 -135.955)" fill="#333"/>
              <g id="XMLID_162_" transform="translate(2.491 4.104)">
                <circle id="XMLID_164_" cx="2.589" cy="2.589" r="2.589" fill="#333"/>
                <circle id="XMLID_163_" cx="0.639" cy="0.639" r="0.639" transform="translate(2.36 0.082)" fill="#f2f2f2"/>
              </g>
            </g>
          </g>
          <path id="XMLID_159_" d="M233.7,234.9c.688.18,1.311.344,1.9.459a9.339,9.339,0,0,0,1.737.18,7.838,7.838,0,0,0,1.721-.164c.295-.033.59-.147.918-.213.311-.066.623-.2.983-.262a4.093,4.093,0,0,1-.639.868,3.781,3.781,0,0,1-.869.655,4.2,4.2,0,0,1-2.147.557,4.255,4.255,0,0,1-2.114-.574A3.991,3.991,0,0,1,233.7,234.9Z" transform="translate(-163.63 -196.427)" fill="#f4a56e"/>
          <ellipse id="XMLID_158_" cx="3.687" cy="2.901" rx="3.687" ry="2.901" transform="translate(82.737 34.704)" fill="#f9b39d"/>
          <ellipse id="XMLID_157_" cx="3.687" cy="2.901" rx="3.687" ry="2.901" transform="translate(58.631 35.179)" fill="#f9b39d"/>
          <path id="XMLID_156_" d="M208,274.5a22.329,22.329,0,0,0,3.884,1.262,17.819,17.819,0,0,0,3.933.41c.328.016.656-.033.983-.049a6.663,6.663,0,0,0,.983-.1c.328-.049.655-.1.983-.131l.983-.213.492-.1c.164-.033.328-.1.492-.147l.983-.279c.655-.2,1.295-.459,1.983-.656a14.26,14.26,0,0,1-1.688,1.278,11.6,11.6,0,0,1-1.917.951c-.328.131-.672.262-1.016.377-.344.082-.7.164-1.065.246a7.826,7.826,0,0,1-1.082.164,7.984,7.984,0,0,1-1.082.066,11.094,11.094,0,0,1-4.261-.77A9.41,9.41,0,0,1,208,274.5Z" transform="translate(-142.142 -229.538)" fill="#f4a56e"/>
          <path id="XMLID_155_" d="M134.033,2.175s-13.152-7.138-22.951-4.287c-7.964.787-15.436,7.9-16.263,10.973C91.459,15.94,91.9,29.378,91.9,29.378a5.813,5.813,0,0,1,3.359-3.7c3.818.164,4.654,2.048,4.654,2.048.1-3.622,2.589-4.064,2.589-4.064,2.376-1.049,5.539-7.325,5.539-7.325,0-2.688,2.507-5.08,2.507-5.08h0a5.7,5.7,0,0,0,1.508,1.917s7.145,7.276,13.093,7.423l-1.639-3.72a20.267,20.267,0,0,0,11.651,5.359s2.409,3.114,2.261,5.473c0,0,3.687-5.228,7.538-.639C144.964,27.084,144.718,6.452,134.033,2.175Z" transform="translate(-45.053 0)" fill="#3f2820"/>
        </g>
        <g id="XMLID_41_" transform="translate(0 49.373)">
          <path id="XMLID_17_" d="M94.714,379.3v.154a6.426,6.426,0,0,1-6.424,6.424H84.11a6.426,6.426,0,0,1-6.424-6.424V379.3c-13.379,2.9-23.794,11.8-26.587,22.664-.034.154,11.485,12.763,35,12.167s35.222-12.013,35.171-12.167C118.491,391.086,108.076,382.178,94.714,379.3Z" transform="translate(-51.1 -363.711)" fill="#ffda0b"/>
        </g>
        <path id="XMLID_154_" d="M164.046,379.416V391H136.581V379.4a42.239,42.239,0,0,0-6.981,3.179l.1,27.126a51.423,51.423,0,0,0,20,3.433,66.856,66.856,0,0,0,20.768-3.587l-.071-27.316A40.279,40.279,0,0,0,164.046,379.416Z" transform="translate(-115.578 -313.264)" fill="#ff8900"/>
      </g>
    </g>
  </g>
</svg>
