<svg xmlns="http://www.w3.org/2000/svg" width="120" height="120" viewBox="0 0 120 120">
  <g id="JR-3" transform="translate(-16613 -2227)">
    <g id="Group_4243" data-name="Group 4243" transform="translate(16613 2227)">
      <rect id="Rectangle_994" data-name="Rectangle 994" width="118.857" height="118.857" rx="59.428" transform="translate(0 0)" fill="#ff6f39"/>
      <path id="Subtraction_4" data-name="Subtraction 4" d="M60,120h-.008a59.712,59.712,0,0,1-33.539-10.246,60.174,60.174,0,0,1-21.738-26.4,59.922,59.922,0,0,1,5.532-56.9,60.175,60.175,0,0,1,26.4-21.738A59.624,59.624,0,0,1,60,0Z" transform="translate(120 120) rotate(180)" fill="#f25c24"/>
      <g id="XMLID_20_" transform="translate(25.344 20.176)">
        <g id="XMLID_41_" transform="translate(0 49.373)">
          <path id="XMLID_17_" d="M94.714,379.3v.154a6.426,6.426,0,0,1-6.424,6.424H84.11a6.426,6.426,0,0,1-6.424-6.424V379.3c-13.379,2.9-23.794,11.8-26.587,22.664-.034.154,11.485,12.763,35,12.167s35.222-12.013,35.171-12.167C118.491,391.086,108.076,382.178,94.714,379.3Z" transform="translate(-51.1 -363.711)" fill="#49c6f2"/>
          <path id="Path_9297" data-name="Path 9297" d="M16665.127,2314.178l8.189,16.282,8.186-15.807a10.3,10.3,0,0,0-7.6-3.5A16.209,16.209,0,0,0,16665.127,2314.178Z" transform="translate(-16638.344 -2296.549)" fill="#fff"/>
          <path id="XMLID_18_" d="M216.9,310.45h-4.18a6.426,6.426,0,0,1-6.424-6.424v-9.3a6.426,6.426,0,0,1,6.424-6.424h4.18a6.426,6.426,0,0,1,6.424,6.424v9.3A6.426,6.426,0,0,1,216.9,310.45Z" transform="translate(-179.713 -288.3)" fill="#f5c29f"/>
        </g>
        <g id="Group_4244" data-name="Group 4244" transform="translate(-16614.785 -1976.45)">
          <ellipse id="XMLID_288_" cx="4.939" cy="6.822" rx="4.939" ry="6.822" transform="translate(16668.727 2008.721) rotate(12.263)" fill="#ffd2b1"/>
          <ellipse id="XMLID_286_" cx="4.939" cy="6.822" rx="4.939" ry="6.822" transform="translate(16634.709 2022.488) rotate(167.737)" fill="#ffd2b1"/>
          <ellipse id="XMLID_284_" cx="21.197" cy="24.733" rx="21.197" ry="24.733" transform="translate(16629.131 1991.282)" fill="#ffd2b1"/>
          <path id="XMLID_282_" d="M276.8,208.75a5.293,5.293,0,0,1,2.114-2,6.463,6.463,0,0,1,2.883-.788,5.971,5.971,0,0,1,1.537.154,6.082,6.082,0,0,1,1.422.557,5.057,5.057,0,0,1,1.191.884,3.338,3.338,0,0,1,.48.557,6.76,6.76,0,0,1,.4.615c-.5-.1-.9-.288-1.345-.384s-.826-.25-1.249-.307c-.4-.1-.807-.115-1.191-.192-.4,0-.788-.058-1.192-.019a13.4,13.4,0,0,0-2.421.288C278.606,208.289,277.742,208.5,276.8,208.75Z" transform="translate(16377.046 1802.826)" fill="#333"/>
          <g id="XMLID_279_" transform="translate(16656.305 2014.805)">
            <circle id="XMLID_280_" cx="2.556" cy="2.556" r="2.556" fill="#333"/>
          </g>
          <g id="XMLID_277_" transform="translate(16658.65 2014.862)">
            <circle id="XMLID_278_" cx="0.634" cy="0.634" r="0.634" fill="#f2f2f2"/>
          </g>
          <path id="XMLID_275_" d="M182.9,208.75a5.294,5.294,0,0,1,2.114-2,6.463,6.463,0,0,1,2.883-.788,5.971,5.971,0,0,1,1.537.154,6.081,6.081,0,0,1,1.422.557,5.056,5.056,0,0,1,1.192.884,3.341,3.341,0,0,1,.48.557,6.786,6.786,0,0,1,.4.615c-.5-.1-.9-.288-1.345-.384s-.826-.25-1.249-.307c-.4-.1-.807-.115-1.192-.192-.4,0-.788-.058-1.192-.019a13.4,13.4,0,0,0-2.421.288C184.706,208.289,183.861,208.5,182.9,208.75Z" transform="translate(16452.9 1802.826)" fill="#333"/>
          <g id="XMLID_272_" transform="translate(16638.264 2014.805)">
            <circle id="XMLID_273_" cx="2.556" cy="2.556" r="2.556" fill="#333"/>
          </g>
          <g id="XMLID_270_" transform="translate(16640.605 2014.862)">
            <circle id="XMLID_271_" cx="0.634" cy="0.634" r="0.634" fill="#f2f2f2"/>
          </g>
          <path id="XMLID_268_" d="M237.9,281.819c.692.173,1.288.346,1.883.461a8.9,8.9,0,0,0,1.71.173,7.328,7.328,0,0,0,1.691-.173c.307-.038.577-.154.9-.211.307-.077.615-.192.98-.269a4.538,4.538,0,0,1-.615.846,4.721,4.721,0,0,1-.846.653,3.86,3.86,0,0,1-2.114.538,4.314,4.314,0,0,1-2.095-.557A3.546,3.546,0,0,1,237.9,281.819Z" transform="translate(16408.471 1741.557)" fill="#f4a56e"/>
          <path id="XMLID_266_" d="M229.185,301.2c-.519.673-1,1.345-1.6,1.979a5.487,5.487,0,0,1-1,.865,5.726,5.726,0,0,1-1.134.577,12.158,12.158,0,0,1-2.383.634c-.807.134-1.614.173-2.4.231h-.058a20.72,20.72,0,0,1-2.4-.231,10.4,10.4,0,0,1-2.383-.634,6.289,6.289,0,0,1-1.134-.577,6.089,6.089,0,0,1-1-.865c-.577-.634-1.076-1.326-1.6-1.979.692.442,1.326,1,1.96,1.461a5.214,5.214,0,0,0,.98.577,6.865,6.865,0,0,0,1.057.365,14.44,14.44,0,0,0,2.248.365c.769.077,1.537.115,2.325.154h-.058c.788-.019,1.557-.077,2.325-.135a14.429,14.429,0,0,0,2.248-.365,6.866,6.866,0,0,0,1.057-.365,5.218,5.218,0,0,0,.98-.577C227.878,302.219,228.493,301.642,229.185,301.2Z" transform="translate(16429.313 1725.885)" fill="#f4a56e"/>
          <path id="XMLID_265_" d="M129.5,41.6s.25-13.51,2.9-17.661a38.6,38.6,0,0,1,14.932-11.684c1.23-.519,7.937-5.093,9.974-9.244a7.9,7.9,0,0,1-1.96,5.612A18.563,18.563,0,0,0,161.382-.1s8.417,7.8,8.9,12.934c0,0,10.07,8.917,7.226,27.635l-3.44,5.093s-2.671-12.088-6.246-16.393c0,0-16.277-4.843-27.174,1.211,0,0-6.342,5.727-6.092,13.049C134.554,43.466,133.228,40.949,129.5,41.6Z" transform="translate(16496.039 1969.282)" fill="#3f2820"/>
        </g>
      </g>
    </g>
  </g>
</svg>
