<svg xmlns="http://www.w3.org/2000/svg" width="120.314" height="121.169" viewBox="0 0 120.314 121.169">
  <g id="LTL-2" transform="translate(0.324 1.169)">
    <g id="Group_3837" data-name="Group 3837" transform="translate(-0.324 -1.169)">
      <rect id="Rectangle_994" data-name="Rectangle 994" width="120" height="120" rx="60" fill="#ff5fd4"/>
    </g>
    <path id="Subtraction_6" data-name="Subtraction 6" d="M59.315,120H59.3a58.34,58.34,0,0,1-23.079-4.714,59.083,59.083,0,0,1-18.854-12.859A60.606,60.606,0,0,1,4.661,36.645,59.842,59.842,0,0,1,17.373,17.573,59.083,59.083,0,0,1,36.226,4.715,58.364,58.364,0,0,1,59.315,0Z" transform="translate(119.991 118.83) rotate(180)" fill="#f440c3"/>
    <g id="XMLID_220_" transform="translate(26.386 22.818)">
      <g id="XMLID_257_" transform="translate(0 49.313)">
        <path id="XMLID_260_" d="M217.454,315.8h-4.048A6.211,6.211,0,0,1,207.2,309.6V298.606a6.212,6.212,0,0,1,6.206-6.206h4.048a6.212,6.212,0,0,1,6.206,6.206V309.6A6.211,6.211,0,0,1,217.454,315.8Z" transform="translate(-181.515 -292.4)" fill="#f5c29f"/>
        <path id="XMLID_259_" d="M97.045,381.7v.152a6.211,6.211,0,0,1-6.206,6.206H86.791a6.212,6.212,0,0,1-6.206-6.206V381.7C67.65,384.5,57.6,393.1,54.9,403.608c-.034.152,16.944,10.9,33.9,10.9s33.623-11.277,33.589-11.428C119.692,392.573,109.964,384.5,97.045,381.7Z" transform="translate(-54.9 -366.64)" fill="#ffda0b"/>
        <path id="XMLID_258_" d="M266.1,438.5" transform="translate(-230.481 -413.86)" fill="#110102"/>
      </g>
      <path id="XMLID_256_" d="M97.436,277s1.956,10.962-3.744,13.306c0,0-15.752,12.547-7.96,22.144,0,0,3.9-4.773,8.4-6.813,0,0,8.584-4.638,10.3-10.844l1.788-10.052Z" transform="translate(-78.732 -230.284)" fill="#3f2820"/>
      <ellipse id="XMLID_255_" cx="4.739" cy="6.56" rx="4.739" ry="6.56" transform="translate(51.676 30.748) rotate(12.263)" fill="#ffd2b1"/>
      <ellipse id="XMLID_254_" cx="4.739" cy="6.56" rx="4.739" ry="6.56" transform="translate(18.947 43.996) rotate(167.737)" fill="#ffd2b1"/>
      <ellipse id="XMLID_253_" cx="20.373" cy="23.779" rx="20.373" ry="23.779" transform="translate(13.593 13.981)" fill="#ffd2b1"/>
      <g id="XMLID_242_" transform="translate(21.031 29.354)">
        <g id="XMLID_248_" transform="translate(16.308)">
          <path id="XMLID_252_" d="M276.3,176.744a5.327,5.327,0,0,1,2.041-1.923,6.23,6.23,0,0,1,2.783-.759,6.1,6.1,0,0,1,1.467.135,5.623,5.623,0,0,1,1.366.54,4.861,4.861,0,0,1,1.147.86,2.763,2.763,0,0,1,.455.54c.135.185.27.388.388.59-.489-.1-.877-.27-1.3-.371a11.164,11.164,0,0,0-1.2-.287c-.388-.1-.776-.118-1.147-.186-.388,0-.759-.051-1.13-.017a14.081,14.081,0,0,0-2.327.27C278.037,176.305,277.228,176.508,276.3,176.744Z" transform="translate(-276.3 -174.055)" fill="#333"/>
          <g id="XMLID_249_" transform="translate(2.597 3.499)">
            <ellipse id="XMLID_251_" cx="2.445" cy="2.445" rx="2.445" ry="2.445" fill="#333"/>
            <ellipse id="XMLID_250_" cx="0.607" cy="0.607" rx="0.607" ry="0.607" transform="translate(2.226 0.051)" fill="#f2f2f2"/>
          </g>
        </g>
        <g id="XMLID_243_" transform="translate(0)">
          <path id="XMLID_247_" d="M179.6,176.744a5.328,5.328,0,0,1,2.041-1.923,6.23,6.23,0,0,1,2.783-.759,6.1,6.1,0,0,1,1.467.135,5.623,5.623,0,0,1,1.366.54,4.86,4.86,0,0,1,1.147.86,2.76,2.76,0,0,1,.455.54c.135.185.27.388.388.59-.489-.1-.877-.27-1.3-.371a11.159,11.159,0,0,0-1.2-.287c-.388-.1-.776-.118-1.147-.186-.388,0-.759-.051-1.13-.017a14.081,14.081,0,0,0-2.327.27C181.337,176.305,180.511,176.508,179.6,176.744Z" transform="translate(-179.6 -174.055)" fill="#333"/>
          <g id="XMLID_244_" transform="translate(1.552 3.499)">
            <ellipse id="XMLID_246_" cx="2.445" cy="2.445" rx="2.445" ry="2.445" fill="#333"/>
            <ellipse id="XMLID_245_" cx="0.607" cy="0.607" rx="0.607" ry="0.607" transform="translate(2.243 0.051)" fill="#f2f2f2"/>
          </g>
        </g>
      </g>
      <path id="XMLID_241_" d="M234.3,262.717c.658.169,1.248.32,1.8.439a8.086,8.086,0,0,0,1.653.169,6.827,6.827,0,0,0,1.636-.169c.287-.034.557-.135.86-.2s.59-.185.944-.253a4.727,4.727,0,0,1-.607.826,3.8,3.8,0,0,1-.826.624,3.98,3.98,0,0,1-2.024.523,4.106,4.106,0,0,1-2.007-.54A3.514,3.514,0,0,1,234.3,262.717Z" transform="translate(-204.044 -218.396)" fill="#f4a56e"/>
      <ellipse id="XMLID_240_" cx="3.508" cy="2.766" rx="3.508" ry="2.766" transform="translate(42.415 40.746)" fill="#f9b39d"/>
      <ellipse id="XMLID_239_" cx="3.508" cy="2.766" rx="3.508" ry="2.766" transform="translate(19.53 41.184)" fill="#f9b39d"/>
      <g id="XMLID_235_" transform="translate(35.855 29.277)">
        <path id="XMLID_236_" d="M273.942,186.485a6.442,6.442,0,1,1,6.442-6.442A6.442,6.442,0,0,1,273.942,186.485Zm0-11.991a5.549,5.549,0,1,0,5.548,5.549A5.553,5.553,0,0,0,273.942,174.494Z" transform="translate(-267.5 -173.6)" fill="#1a1a1a"/>
      </g>
      <g id="XMLID_231_" transform="translate(19.412 29.277)">
        <path id="XMLID_232_" d="M176.442,186.485a6.442,6.442,0,1,1,6.442-6.442A6.442,6.442,0,0,1,176.442,186.485Zm0-11.991a5.549,5.549,0,1,0,5.549,5.549A5.553,5.553,0,0,0,176.442,174.494Z" transform="translate(-170 -173.6)" fill="#1a1a1a"/>
      </g>
      <g id="XMLID_229_" transform="translate(31.723 33.865)">
        <path id="XMLID_230_" d="M247.722,200.8c-1.535.034-3.66.051-4.722.051v.911h.624c.877,0,2.176-.017,4.115-.067Z" transform="translate(-243 -200.8)" fill="#1a1a1a"/>
      </g>
      <g id="XMLID_227_" transform="translate(46.935 31.757)">
        <path id="XMLID_228_" d="M339.018,191.487l-5.818-2.31.4-.877,5.9,2.327Z" transform="translate(-333.2 -188.3)" fill="#1a1a1a"/>
      </g>
      <g id="XMLID_225_" transform="translate(15.027 31.639)">
        <path id="XMLID_226_" d="M144.422,191.277l-.422-.894,5.886-2.783.371.928Z" transform="translate(-144 -187.6)" fill="#1a1a1a"/>
      </g>
      <g id="XMLID_223_" transform="translate(25.361 50.336)">
        <path id="XMLID_224_" d="M221.6,298.471c-.152-.152-5.38,2.648-8.163,2.648-2.934,0-8.163-2.648-8.163-2.648-.185.169,5.768,4.115,8.163,4.115C215.988,302.586,221.6,298.471,221.6,298.471Z" transform="translate(-205.275 -298.465)" fill="#f4a792"/>
      </g>
      <ellipse id="XMLID_222_" cx="10.406" cy="6.426" rx="10.406" ry="6.426" transform="translate(23.105 0)" fill="#3f2820"/>
      <path id="XMLID_221_" d="M117.815,62.511l9.158-.2.32-8.011,3.727,8.264h3.71s-.877-6.173-.27-9.326l3.44,9.326,14.723-.759a6.748,6.748,0,0,1-.742,6.139,4.55,4.55,0,0,0,1.619-1.467c.067-.135.152-.253.236-.4s.169-.287.27-.455a6.119,6.119,0,0,0,.523-1.956,4.852,4.852,0,0,1,4.419.708s3.322-22.4-16.055-25.7c0,0-34.995-7.555-32.718,26.377,0,0,3.879-4.756,6.442,2.884l1.8,1.754Z" transform="translate(-100.765 -31.547)" fill="#3f2820"/>
    </g>
  </g>
</svg>
