<svg id="LTL-3" xmlns="http://www.w3.org/2000/svg" width="120" height="120" viewBox="0 0 120 120">
  <rect id="Rectangle_994" data-name="Rectangle 994" width="118.857" height="118.857" rx="59.429" transform="translate(0 0)" fill="#42c0fa"/>
  <path id="Subtraction_4" data-name="Subtraction 4" d="M60,120h-.008a59.712,59.712,0,0,1-33.539-10.246,60.174,60.174,0,0,1-21.738-26.4,59.922,59.922,0,0,1,5.532-56.9,60.175,60.175,0,0,1,26.4-21.739A59.624,59.624,0,0,1,60,0Z" transform="translate(120 120) rotate(180)" fill="#38b0e6"/>
  <g id="XMLID_20_" transform="translate(22.833 24.183)">
    <g id="XMLID_41_" transform="translate(2.511 45.366)">
      <path id="XMLID_18_" d="M216.9,310.45h-4.18a6.426,6.426,0,0,1-6.424-6.424v-9.3a6.426,6.426,0,0,1,6.424-6.424h4.18a6.426,6.426,0,0,1,6.424,6.424v9.3A6.426,6.426,0,0,1,216.9,310.45Z" transform="translate(-179.713 -288.3)" fill="#f5c29f"/>
      <path id="XMLID_17_" d="M94.714,379.3v.154a6.426,6.426,0,0,1-6.424,6.424H84.11a6.426,6.426,0,0,1-6.424-6.424V379.3c-13.379,2.9-23.794,11.8-26.587,22.664-.034.154,11.485,12.763,35,12.167s35.222-12.013,35.171-12.167C118.491,391.086,108.076,382.178,94.714,379.3Z" transform="translate(-51.1 -363.711)" fill="#4360fd"/>
    </g>
    <g id="Group_4238" data-name="Group 4238" transform="translate(0 0)">
      <path id="XMLID_104_" d="M80.456,3.663S69.89-5.208,54.881,4.77c0,0-10.733,7.3-9.777,26.615,0,0-3.321,8.855-8.7,7.748,0,0,6.339,4.176,8.553,4.545,0,0-4.746,2.163-7.916.788,0,0,7.6,4.293,12.041,4.276,0,0-6.943,2.683-10.582.755a17.012,17.012,0,0,0,13.634,3.371s-6.222,3.388-9.073,3.958c0,0,13.785,4.427,18.531-5.065L80.037,23.939l5.283-16Z" transform="translate(-36.4 -0.029)" fill="#3f2820"/>
      <path id="XMLID_103_" d="M277.229,15.442s23.881-2.633,22.875,29.6c0,0-6.088,16.636-4.847,22.02,0,0-6.507,1.576-10.364-5.551L275.3,27.634S275.367,17.186,277.229,15.442Z" transform="translate(-235.235 -12.814)" fill="#3f2820"/>
      <ellipse id="XMLID_100_" cx="4.998" cy="6.926" rx="4.998" ry="6.926" transform="translate(56.609 27.432) rotate(12.263)" fill="#ffd2b1"/>
      <ellipse id="XMLID_99_" cx="4.998" cy="6.926" rx="4.998" ry="6.926" transform="translate(22.07 41.406) rotate(167.737)" fill="#ffd2b1"/>
      <ellipse id="XMLID_98_" cx="21.5" cy="25.089" rx="21.5" ry="25.089" transform="translate(16.436 9.739)" fill="#ffd2b1"/>
      <g id="XMLID_87_" transform="translate(23.697 25.512)">
        <g id="XMLID_93_" transform="translate(18.296)">
          <path id="XMLID_97_" d="M286.8,154.98a5.674,5.674,0,0,1,2.147-2.029,6.286,6.286,0,0,1,2.935-.788,6.155,6.155,0,0,1,1.56.151,5.748,5.748,0,0,1,2.65,1.476,3.968,3.968,0,0,1,.486.57,4.9,4.9,0,0,1,.4.62c-.5-.1-.922-.285-1.375-.4a12.383,12.383,0,0,0-1.258-.3c-.4-.1-.822-.117-1.207-.184-.4,0-.8-.05-1.207-.034a13.893,13.893,0,0,0-2.449.285C288.628,154.527,287.773,154.745,286.8,154.98Z" transform="translate(-286.8 -152.155)" fill="#333"/>
          <g id="XMLID_94_" transform="translate(2.499 4.15)">
            <ellipse id="XMLID_96_" cx="2.583" cy="2.583" rx="2.583" ry="2.583" fill="#333"/>
            <ellipse id="XMLID_95_" cx="0.654" cy="0.654" rx="0.654" ry="0.654" transform="translate(2.365 0.034)" fill="#f2f2f2"/>
          </g>
        </g>
        <g id="XMLID_88_">
          <path id="XMLID_92_" d="M177.7,154.98a5.674,5.674,0,0,1,2.147-2.029,6.286,6.286,0,0,1,2.935-.788,6.155,6.155,0,0,1,1.56.151,5.747,5.747,0,0,1,2.65,1.476,3.967,3.967,0,0,1,.486.57,4.9,4.9,0,0,1,.4.62c-.5-.1-.922-.285-1.375-.4a12.388,12.388,0,0,0-1.258-.3c-.4-.1-.822-.117-1.207-.184-.4,0-.8-.05-1.207-.034a13.892,13.892,0,0,0-2.448.285C179.528,154.527,178.656,154.745,177.7,154.98Z" transform="translate(-177.7 -152.155)" fill="#333"/>
          <g id="XMLID_89_" transform="translate(2.499 4.15)">
            <ellipse id="XMLID_91_" cx="2.583" cy="2.583" rx="2.583" ry="2.583" fill="#333"/>
            <ellipse id="XMLID_90_" cx="0.654" cy="0.654" rx="0.654" ry="0.654" transform="translate(2.348 0.034)" fill="#f2f2f2"/>
          </g>
        </g>
      </g>
      <path id="XMLID_86_" d="M215.7,276.6a21.443,21.443,0,0,0,3.891,1.258,17.377,17.377,0,0,0,3.941.4,29.432,29.432,0,0,0,1.979-.134c.335-.05.654-.1.989-.134l.973-.218.486-.1c.168-.034.319-.1.486-.134l.989-.285c.654-.2,1.291-.47,1.979-.654a16.111,16.111,0,0,1-1.694,1.291,11.473,11.473,0,0,1-1.929.956,10.6,10.6,0,0,1-1.023.369l-1.057.252a5.905,5.905,0,0,1-1.073.151,7.93,7.93,0,0,1-1.09.067,11.3,11.3,0,0,1-4.276-.771A9.4,9.4,0,0,1,215.7,276.6Z" transform="translate(-185.631 -230.218)" fill="#f4a792"/>
      <path id="XMLID_85_" d="M240.9,243.317c.688.184,1.308.335,1.912.453a9.074,9.074,0,0,0,1.744.184,7.635,7.635,0,0,0,1.727-.168c.3-.034.587-.151.906-.218s.62-.2.989-.268a4.012,4.012,0,0,1-.637.872,4.234,4.234,0,0,1-.872.654,4.142,4.142,0,0,1-2.147.553,4.443,4.443,0,0,1-2.13-.57A3.559,3.559,0,0,1,240.9,243.317Z" transform="translate(-206.605 -202.503)" fill="#f4a792"/>
      <path id="XMLID_84_" d="M140.3,61.442s-6.138,11.018-17.995,13.517a13.316,13.316,0,0,0,1.509-5.283s-8.184,2.734-9.475,11.588c0,0-.335,4.763.922,7.195,0,0-4.042-6.255-3.2-11.488,0,0-4.209-3.455-6.758.654,0,0,14.07-30.774,35.5-18.883Z" transform="translate(-93.745 -46.622)" fill="#3f2820"/>
      <path id="XMLID_83_" d="M291.445,64.6s8.083,4.863,6.809,13.517c0,0,1.157-.553,2.063-3.539a17.106,17.106,0,0,1-1.107,9.341s3.153-3.019,3.321-4.444c0,0-.637,8.905-2.532,11.1a51.449,51.449,0,0,0,4.931-12.326A20.812,20.812,0,0,0,286.9,59.8Z" transform="translate(-244.889 -49.776)" fill="#3f2820"/>
    </g>
  </g>
</svg>
